<svg xmlns="http://www.w3.org/2000/svg" xmlns:svg="http://www.w3.org/2000/svg" id="svg3615" width="90" height="90" version="1.1"><defs id="defs3617"><clipPath id="clipPath2995-6" clipPathUnits="userSpaceOnUse"><path id="path2997-4" fill="#f0f" fill-opacity="1" fill-rule="nonzero" stroke="none" stroke-width="4" d="m 222,818.36215 0,54 126,0 0,-54 -43.875,0 c -0.0316,0.0521 -0.062,0.1043 -0.0937,0.15625 -2.2906,3.75334 -4.87723,7.16686 -7.875,9.875 -2.99777,2.70814 -6.52444,5 -11.125,5 -4.60056,0 -8.12214,-2.29391 -11.125,-5 -3.00286,-2.70609 -5.60728,-6.12218 -7.90625,-9.875 -0.0318,-0.0519 -0.062,-0.1042 -0.0937,-0.15625 L 222.0001,818.36215 Z" color="#000" display="inline" enable-background="accumulate" overflow="visible" visibility="visible" style="marker:none"/></clipPath></defs><metadata id="metadata3620"/><g id="layer1" transform="translate(1978.2857,336.49495)"><g id="g4271" transform="translate(-2218.2857,-1106.8571)"><path id="rect3461-3-1" fill="gray" fill-opacity="1" fill-rule="nonzero" stroke="none" stroke-width="2" d="M 30.21875 54.15625 C 11.057821 55.125058 6 61.297631 6 75 L 6 81 C 6 90 6 90 18 90 L 72 90 C 84 90 84 90 84 81 L 84 75 C 84 61.305107 78.947539 55.130228 59.8125 54.15625 C 58.661142 55.560765 57.451922 56.86076 56.15625 58.03125 C 53.15848 60.73939 49.63181 63.03125 45.03125 63.03125 C 40.43069 63.03125 36.90911 60.73734 33.90625 58.03125 C 32.605846 56.859364 31.377261 55.564123 30.21875 54.15625 z" clip-path="none" color="#000" display="inline" enable-background="accumulate" overflow="visible" transform="translate(240,770.36215)" visibility="visible" style="marker:none"/><rect stroke-width="4" style="marker:none" id="rect4269" width="90" height="90" x="240" y="770.362" fill="none" stroke="none" color="#000" display="inline" enable-background="accumulate" overflow="visible" visibility="visible"/><path d="m 285.00024,770.36215 c -14.99976,-3e-5 -20.99976,6.00003 -20.99976,21.00003 l 0,3 c 0,12 12.03506,33 21.01729,33 8.98223,0 20.98223,-21 20.98223,-33 l 0,-3 c 0,-15 -6,-21 -20.99976,-21.00003 z" style="marker:none" id="path3447-0-6" fill="gray" fill-opacity="1" fill-rule="nonzero" stroke="none" stroke-width="4" color="#000" display="inline" enable-background="accumulate" overflow="visible" visibility="visible"/></g></g><g id="layer2" display="none"><path id="rect3461-3-1-5" fill="gray" fill-opacity="1" fill-rule="nonzero" stroke="none" stroke-width="2" d="m 246,851.36218 c 0,9 0,9 12,9 l 54,0 c 12,0 12,0 12,-9 l 0,-6 c 0,-15 -6,-21 -30,-21 l -18,0 C 252,824.36218 246,830.36218 246,845.36218 Z" clip-path="url(#clipPath2995-6)" color="#000" display="inline" enable-background="accumulate" overflow="visible" transform="translate(-240,-770.36215)" visibility="visible" style="marker:none"/><rect stroke-width="4" style="marker:none" id="rect4269-8" width="90" height="90" x="0" y="0" fill="none" stroke="none" color="#000" display="inline" enable-background="accumulate" overflow="visible" visibility="visible"/><path d="M 45.00024,-4.8230939e-7 C 30.00048,-3.0482196e-5 24.00048,6.0000295 24.00048,21.00003 l 0,3 c 0,12 12.03506,33 21.01729,33 8.98223,0 20.98223,-21 20.98223,-33 l 0,-3 C 66,6.0000295 60,2.9517803e-5 45.00024,-4.8230939e-7 Z" style="marker:none" id="path3447-0-6-9" fill="gray" fill-opacity="1" fill-rule="nonzero" stroke="none" stroke-width="4" color="#000" display="inline" enable-background="accumulate" overflow="visible" visibility="visible"/></g></svg>